inDegrees=yes
name=IK-live
DataType=double
version=3
OpenSimVersion=4.1
endheader
time	pelvis_tilt	pelvis_list	pelvis_rotation	pelvis_tx	pelvis_ty	pelvis_tz	hip_flexion_r	hip_adduction_r	hip_rotation_r	knee_angle_r	ankle_angle_r	subtalar_angle_r	mtp_angle_r	hip_flexion_l	hip_adduction_l	hip_rotation_l	knee_angle_l	ankle_angle_l	subtalar_angle_l	mtp_angle_l	lumbar_extension	lumbar_bending	lumbar_rotation	neck_flex	neck_latbend	neck_rot	arm_flex_r	arm_add_r	arm_rot_r	elbow_flex_r	pro_sup_r	wrist_flex_r	wrist_dev_r	arm_flex_l	arm_add_l	arm_rot_l	elbow_flex_l	pro_sup_l	wrist_flex_l	wrist_dev_l
9.7889839	8.226507061818165	4.171850474580074	82.81981369595404	0.2341366603171506	0.04326292228651554	-1.326684523481465	-22.57117169827992	-1.591976316804377	-3.241458145969817	5.899560354604904	2.451982624139334	1.987972377786656	0	-24.74788768789517	-3.395140484746916	-11.58000132048591	9.793848132074926	-0.4439473045988533	4.250290820099795	0	-21.37711699760957	1.659277491615732	3.206407148933037	0	0	0	0.7835318576318981	-15.17648797074834	33.30707355363955	7.066049584967224	24.88519923893518	0	0.01743145647753626	5.874210882690083	-13.22993812308261	43.89244498934704	6.882269617422898	33.48554133844875	0	0.01743145647753626
9.9488181	-22.57776249234716	-7.531662304892084	-218.3863523090698	0.2341366603171506	0.04326292228651554	-1.326684523481465	-22.57117169827992	-1.591976316804377	-3.241458145969817	5.899560354604904	2.451982624139334	1.987972377786656	0	-24.74788768789517	-3.395140484746916	-11.58000132048591	9.793848132074926	-0.4439473045988533	4.250290820099795	0	-21.37711699760957	1.659277491615732	3.206407148933037	0	0	0	0.7847043905135542	-15.17648283155834	33.30554533249337	7.087128919320699	24.88916322482174	0	0.01924580770377612	5.875278051454741	-13.22998968034975	43.8901656015691	6.903923712438345	33.48748681641676	0	0.01924580770377612
10.101744	-48.1566130935161	-21.41039317989652	-224.0853837631933	0.2341366603171506	0.04326292228651554	-1.326684523481465	-22.57117169827992	-1.591976316804377	-3.241458145969817	5.899560354604904	2.451982624139334	1.987972377786656	0	-24.74788768789517	-3.395140484746916	-11.58000132048591	9.793848132074926	-0.4439473045988533	4.250290820099795	0	-21.37711699760957	1.659277491615732	3.206407148933037	0	0	0	0.7877455385324577	-15.17646949064773	33.30157332771704	7.142482593543232	24.89951489434815	0	0.02399341638097216	5.878045640625532	-13.2301235188694	43.88423781961038	6.960788242774117	33.49256184036476	0	0.02399341638097216
10.2606927	-76.0412584277347	-21.25510444726841	-247.1607409864938	0.2341366603171506	0.04326292228651554	-1.326684523481465	-22.57117169827992	-1.591976316804377	-3.241458145969817	5.899560354604904	2.451982624139334	1.987972377786656	0	-24.74788768789517	-3.395140484746916	-11.58000132048591	9.793848132074926	-0.4439473045988533	4.250290820099795	0	-21.37711699760957	1.659277491615732	3.206407148933037	0	0	0	0.7830995962704717	-15.17648980332675	33.3075919842839	7.064173277979483	24.88412294521989	0	0.01698826810833298	5.873815873872774	-13.22991973907534	43.89319916942551	6.880496250231698	33.48497971775323	0	0.01698826810833298
10.4136168	84.40953666370933	-156.7068231736375	-73.94006350316894	0.2341366603171506	0.04326292228651554	-1.326684523481465	-22.57117169827992	-1.591976316804377	-3.241458145969817	5.899560354604904	2.451982624139334	1.987972377786656	0	-24.74788768789517	-3.395140484746916	-11.58000132048591	9.793848132074926	-0.4439473045988533	4.250290820099795	0	-21.37711699760957	1.659277491615732	3.206407148933037	0	0	0	0.782546173629365	-15.17649222596496	33.30831117155966	7.054322061918785	24.88226929617396	0	0.01614218220108817	5.873312111481229	-13.22989543477215	43.89427102437683	6.870372080035506	33.48406876886038	0	0.01614218220108817
10.573408	82.81647535637447	-165.864834494034	-80.99777740844499	0.2341366603171506	0.04326292228651554	-1.326684523481465	-22.57117169827992	-1.591976316804377	-3.241458145969817	5.899560354604904	2.451982624139334	1.987972377786656	0	-24.74788768789517	-3.395140484746916	-11.58000132048591	9.793848132074926	-0.4439473045988533	4.250290820099795	0	-21.37711699760957	1.659277491615732	3.206407148933037	0	0	0	0.7830589345681745	-15.17648998303057	33.307646213122	7.063194042905011	24.88397131129452	0	0.01691644941965635	5.873778897551205	-13.22991793623526	43.89328070107065	6.879483778416742	33.48490677168036	0	0.01691644941965635
10.7263375	-62.28449208496017	30.55173623896125	-253.8524652843873	0.2341366603171506	0.04326292228651554	-1.326684523481465	-22.57117169827992	-1.591976316804377	-3.241458145969817	5.899560354604904	2.451982624139334	1.987972377786656	0	-24.74788768789517	-3.395140484746916	-11.58000132048591	9.793848132074926	-0.4439473045988533	4.250290820099795	0	-21.37711699760957	1.659277491615732	3.206407148933037	0	0	0	0.7909469148387824	-15.17645546944189	33.29740944579763	7.198299658612158	24.91023888321913	0	0.02888536561719978	5.880959561223166	-13.23026418196066	43.87803181744417	7.018081811850243	33.49783534083242	0	0.02888536561719978
10.8873144	98.57450348480347	108.948001465864	-48.75547384447924	0.2341366603171506	0.04326292228651554	-1.326684523481465	-22.57117169827992	-1.591976316804377	-3.241458145969817	5.899560354604904	2.451982624139334	1.987972377786656	0	-24.74788768789517	-3.395140484746916	-11.58000132048591	9.793848132074926	-0.4439473045988533	4.250290820099795	0	-21.37711699760957	1.659277491615732	3.206407148933037	0	0	0	0.8017471693414032	-15.17640807413881	33.28329085266293	7.394725990973189	24.94712813089194	0	0.0458281725300831	5.890788015945455	-13.2307396607185	43.85695595945039	7.219772602717473	33.51591188625325	0	0.0458281725300831
11.039241	28.93361957057897	102.5522529310541	23.89328814255464	0.2341366603171506	0.04326292228651554	-1.326684523481465	-22.57117169827992	-1.591976316804377	-3.241458145969817	5.899560354604904	2.451982624139334	1.987972377786656	0	-24.74788768789517	-3.395140484746916	-11.58000132048591	9.793848132074926	-0.4439473045988533	4.250290820099795	0	-21.37711699760957	1.659277491615732	3.206407148933037	0	0	0	0.8561605133301009	-15.17616956384366	33.21241162350243	8.285112911278572	25.12980522838449	0	0.1292510152934928	5.940313446353092	-13.23313243715731	43.75130430385458	8.130364075325545	33.60585907979697	0	0.1292510152934928
